<svg xmlns="http://www.w3.org/2000/svg" width="239.685" height="143.743"><g id="Group_26" data-name="Group 26" transform="translate(-45 -59.082)"><path id="Path_3" data-name="Path 3" d="M6.734-8.918H.26v.6h2.873V0h.728v-8.32h2.873Zm7.969 0h-.728v4.173H8.892v-4.173h-.728V0h.728v-4.147h5.083V0h.725ZM21.645-.6h-3.874v-3.547h2.964v-.6h-2.964V-8.32h3.64v-.6h-4.368V0h4.6Z" transform="translate(78 68)"/><path id="Path_4" data-name="Path 4" d="M0-.22a4.987 4.987 0 0 0 2.668-2.145A30.158 30.158 0 0 0 5.005-7.37l11.6-29.755h.33L28.71-6.93a27.678 27.678 0 0 0 2.227 4.593A5 5 0 0 0 33.715-.22L33.55 0H18.7l-.165-.22a2.791 2.791 0 0 0 2.007-2.118q.3-1.512-.962-4.977l-6.655-17.93-6.82 17.82q-1.265 3.3-.905 4.95A3 3 0 0 0 7.425-.22L7.26 0H.165Zm6.545-10.23.44-.77h13.2l.66.77Zm25.143-2.478a17.186 17.186 0 0 1 1.464-7.309 11.9 11.9 0 0 1 4.059-4.933 10.164 10.164 0 0 1 5.889-1.78 9.1 9.1 0 0 1 2.212.275 17.588 17.588 0 0 1 2.53.879v-2.026a9.919 9.919 0 0 0-.8-4.391 3.912 3.912 0 0 0-2.395-2.078l.165-.22 10.132-2.559.165.165v27.689a19.319 19.319 0 0 0 .768 6.371A4.185 4.185 0 0 0 58.511-.2l-.089.2-10.091.676-.165-.165-.326-3.473a6.4 6.4 0 0 1-2.627 2.746A7.609 7.609 0 0 1 41.327.825 7.512 7.512 0 0 1 36.413-1a12.187 12.187 0 0 1-3.464-4.969 18.533 18.533 0 0 1-1.261-6.959Zm12.928-12.9A3.112 3.112 0 0 0 42-24.363a10.494 10.494 0 0 0-1.551 4.055 31.545 31.545 0 0 0-.509 6.029 30.534 30.534 0 0 0 .56 6.141 11.131 11.131 0 0 0 1.668 4.253A3.279 3.279 0 0 0 44.9-2.346 4.5 4.5 0 0 0 47.84-3.7v-17.665a5.383 5.383 0 0 0-.9-3.219 2.748 2.748 0 0 0-2.325-1.245Zm33.673 4.378a4.138 4.138 0 0 0 .275-2.97 2.187 2.187 0 0 0-1.65-1.485l.165-.22h5.555l.165.22a3.446 3.446 0 0 0-1.952 1.375 17.788 17.788 0 0 0-1.677 3.3L69.984.825h-.33l-9.13-22.055a17.788 17.788 0 0 0-1.678-3.3 3.446 3.446 0 0 0-1.952-1.37l.165-.22H70.2l.165.22a2.652 2.652 0 0 0-1.815 1.595 3.75 3.75 0 0 0 .11 2.8l4.675 12.1ZM92.7.825a10.348 10.348 0 0 1-6.042-1.832A12.5 12.5 0 0 1 82.5-6a16.294 16.294 0 0 1-1.515-7.132 15.374 15.374 0 0 1 1.613-7.2 12.567 12.567 0 0 1 4.328-4.857 10.866 10.866 0 0 1 6.038-1.76 10 10 0 0 1 5.39 1.458 10.1 10.1 0 0 1 3.674 4.013 12.633 12.633 0 0 1 1.327 5.906q0 .529-.027.984a6.174 6.174 0 0 1-.138.954H86.6v-.8h9.848q.059-.9.074-1.781t.015-1.638a15.293 15.293 0 0 0-.972-6.112q-.972-2.154-2.706-2.154-1.966 0-3.033 2.648a19.545 19.545 0 0 0-1.067 7.143 21.47 21.47 0 0 0 1.194 7.727 10.533 10.533 0 0 0 3.055 4.543 6.094 6.094 0 0 0 3.824 1.48 5.276 5.276 0 0 0 2.912-.877 7.073 7.073 0 0 0 2.328-2.679l.3.11a9 9 0 0 1-2.1 3.677A10.023 10.023 0 0 1 96.87.006a10.613 10.613 0 0 1-4.17.819ZM104.242-.22a3.512 3.512 0 0 0 2.3-2.337 18.465 18.465 0 0 0 .666-5.824v-7.546a16.678 16.678 0 0 0-.751-5.831 3.732 3.732 0 0 0-2.44-2.36l.165-.22 10.08-2.562.165.165v3.706a8.658 8.658 0 0 1 3.262-2.932 8.887 8.887 0 0 1 4.088-.994 7.788 7.788 0 0 1 3.73.9 6.939 6.939 0 0 1 2.719 2.625 8.032 8.032 0 0 1 1.028 4.189v10.86a18.465 18.465 0 0 0 .666 5.824 3.512 3.512 0 0 0 2.3 2.337l-.16.22h-11.991l-.169-.22a3.152 3.152 0 0 0 1.622-2.337 26.432 26.432 0 0 0 .458-5.824v-10.553a5.565 5.565 0 0 0-1-3.456 3.343 3.343 0 0 0-2.829-1.313 5.388 5.388 0 0 0-1.867.355 6.366 6.366 0 0 0-1.809 1.039v13.928a25.616 25.616 0 0 0 .474 5.824 3.217 3.217 0 0 0 1.614 2.337L116.4 0h-11.993Zm26.907-25.9a11.447 11.447 0 0 0 6.582-1.694 9.517 9.517 0 0 0 3.576-5.283l.495-.165v7.141h5.764v.8h-16.418Zm17.333 21.3a7.216 7.216 0 0 1-1.621 3.163 7.321 7.321 0 0 1-2.626 1.866 7.953 7.953 0 0 1-3.082.616A6.726 6.726 0 0 1 136.5-.947q-1.968-1.772-1.968-5.483V-25.9h7.268v19.95a4.331 4.331 0 0 0 .772 2.759 2.469 2.469 0 0 0 2.029.969 3.174 3.174 0 0 0 1.923-.646 6.441 6.441 0 0 0 1.681-2.09Zm14.975-21.3h9.7v16.226a17.56 17.56 0 0 0 .711 5.809 3.636 3.636 0 0 0 2.38 2.385l-.165.22-9.974 2.305-.164-.165V-3.1a8.674 8.674 0 0 1-3.175 2.9 8.746 8.746 0 0 1-4.176 1.025 7.161 7.161 0 0 1-5.389-2.162 7.665 7.665 0 0 1-2.088-5.555v-10.852a17.862 17.862 0 0 0-.692-5.816 3.569 3.569 0 0 0-2.38-2.345l.165-.22h10.176v18.993a5.324 5.324 0 0 0 1.027 3.426 3.393 3.393 0 0 0 2.8 1.283 5.349 5.349 0 0 0 1.887-.367 6.435 6.435 0 0 0 1.794-1.027v-13.9a20.577 20.577 0 0 0-.6-5.786 3.406 3.406 0 0 0-2-2.4Zm23.457 17.739a18.465 18.465 0 0 0 .666 5.824 3.512 3.512 0 0 0 2.3 2.337l-.165.22h-12.877l-.165-.22a3.512 3.512 0 0 0 2.3-2.337 18.465 18.465 0 0 0 .666-5.824v-7.546a16.678 16.678 0 0 0-.751-5.831 3.732 3.732 0 0 0-2.44-2.36l.165-.22 10.076-2.562.165.165v7.367l.059.177Zm10.344-18.349-1.219 7.709-.14.11a7.063 7.063 0 0 0-2.422-1.55 7.243 7.243 0 0 0-2.477-.457 4.714 4.714 0 0 0-2.7.806 4.76 4.76 0 0 0-1.758 2.18l-.583-1.431h.985a10.088 10.088 0 0 1 1.845-4.455 8.026 8.026 0 0 1 3.593-2.729 8.015 8.015 0 0 1 4.876-.183ZM208.609.825a10.348 10.348 0 0 1-6.042-1.832A12.5 12.5 0 0 1 198.409-6a16.294 16.294 0 0 1-1.515-7.132 15.374 15.374 0 0 1 1.613-7.2 12.567 12.567 0 0 1 4.328-4.857 10.866 10.866 0 0 1 6.038-1.76 10 10 0 0 1 5.39 1.458 10.1 10.1 0 0 1 3.674 4.013 12.633 12.633 0 0 1 1.327 5.906q0 .529-.027.984a6.173 6.173 0 0 1-.137.954h-16.587v-.8h9.848q.059-.9.074-1.781t.015-1.638a15.293 15.293 0 0 0-.972-6.112q-.972-2.154-2.706-2.154-1.966 0-3.033 2.648a19.545 19.545 0 0 0-1.067 7.143 21.47 21.47 0 0 0 1.194 7.727 10.533 10.533 0 0 0 3.055 4.543 6.094 6.094 0 0 0 3.824 1.48 5.276 5.276 0 0 0 2.912-.877 7.073 7.073 0 0 0 2.328-2.679l.3.11a9 9 0 0 1-2.1 3.677 10.023 10.023 0 0 1-3.4 2.359 10.613 10.613 0 0 1-4.176.813Zm21.408-.91a3.411 3.411 0 0 0 2.544-1 3.512 3.512 0 0 0 .979-2.572 4.282 4.282 0 0 0-.756-2.439 10.5 10.5 0 0 0-2.1-2.219 34.26 34.26 0 0 0-3.138-2.251 27.441 27.441 0 0 1-3.171-2.492 10.523 10.523 0 0 1-2.247-2.886 7.461 7.461 0 0 1-.823-3.5 6.692 6.692 0 0 1 2.521-5.44 10.431 10.431 0 0 1 6.817-2.067 24.416 24.416 0 0 1 2.513.125q1.208.125 2.507.37l1.862.33 1.088 7.148-.305.139a15.9 15.9 0 0 0-3.69-5.614 6.058 6.058 0 0 0-3.957-1.733 3.07 3.07 0 0 0-2.283.867 3.147 3.147 0 0 0-.857 2.319 4.822 4.822 0 0 0 1.339 3.215 18.081 18.081 0 0 0 3.933 3.164 18.284 18.284 0 0 1 5.356 4.6 8.121 8.121 0 0 1 1.536 4.721 7.538 7.538 0 0 1-2.512 5.857 9.3 9.3 0 0 1-6.486 2.268A21.235 21.235 0 0 1 228.1.648a24.12 24.12 0 0 1-2.86-.534l-3.213-.783-.939-7.631.305-.139a16.452 16.452 0 0 0 3.852 6.105 6.986 6.986 0 0 0 4.772 2.249Z" transform="translate(45 112)"/><path id="Path_5" data-name="Path 5" d="M5.122-9.048A4.4 4.4 0 0 0 .7-4.446a4.4 4.4 0 0 0 4.42 4.6 4.4 4.4 0 0 0 4.42-4.6 4.4 4.4 0 0 0-4.418-4.602Zm0 .559A3.787 3.787 0 0 1 8.8-4.433a3.746 3.746 0 0 1-3.679 4 3.746 3.746 0 0 1-3.679-4 3.787 3.787 0 0 1 3.68-4.056Zm10.66-.429h-4.368V0h.728v-4.017h2.964v-.6h-2.964v-3.7h3.64Z" transform="translate(86 128)"/><path id="Path_6" data-name="Path 6" d="M.6-.22a3.618 3.618 0 0 0 2.084-1.24 6.528 6.528 0 0 0 1.221-2.734 19.816 19.816 0 0 0 .41-4.4v-17.335a34.207 34.207 0 0 0-.351-5.479A7.342 7.342 0 0 0 2.8-34.571 4.184 4.184 0 0 0 .6-36.08l.165-.22h11.193l7.961 24.27 5.91-18.336q.618-1.918.925-2.9a12.943 12.943 0 0 0 .415-1.6 8.515 8.515 0 0 0 .108-1.434H39.2l.165.22a4.184 4.184 0 0 0-2.2 1.509A7.342 7.342 0 0 0 36-31.408a34.207 34.207 0 0 0-.351 5.479v15.558A34.207 34.207 0 0 0 36-4.892a7.241 7.241 0 0 0 1.162 3.15 4.348 4.348 0 0 0 2.2 1.522L39.2 0H24.021l-.165-.22a4.348 4.348 0 0 0 2.2-1.522 7.241 7.241 0 0 0 1.162-3.15 34.207 34.207 0 0 0 .351-5.479V-32.28L16.725.825h-.339L5.365-31.883V-8.59a19.8 19.8 0 0 0 .411 4.4 6.416 6.416 0 0 0 1.236 2.73 3.675 3.675 0 0 0 2.07 1.24L8.917 0H.765Zm52.468-15.27q-.77.474-1.427.832t-1.114.667A6.734 6.734 0 0 0 47.6-11.1a9.282 9.282 0 0 0-.832 4.079 6.979 6.979 0 0 0 .845 3.844 2.61 2.61 0 0 0 2.27 1.259 3.373 3.373 0 0 0 1.64-.509 4.256 4.256 0 0 0 1.546-1.642Zm0-3.849a4.667 4.667 0 0 0-1.368-3.514 4.751 4.751 0 0 0-3.444-1.323 6.662 6.662 0 0 0-3.232.914 6.8 6.8 0 0 0-2.724 3.126l-.279-.139a8.549 8.549 0 0 1 1.962-3.693 8.835 8.835 0 0 1 3.274-2.232 10.806 10.806 0 0 1 4-.751 10.292 10.292 0 0 1 4.447.975 8.071 8.071 0 0 1 3.351 2.924 8.683 8.683 0 0 1 1.283 4.874v13.756a3.092 3.092 0 0 0 .571 2.022 1.859 1.859 0 0 0 1.5.685 2.642 2.642 0 0 0 1.142-.267 4.038 4.038 0 0 0 1.138-.859l.224.135a6.19 6.19 0 0 1-2.366 2.6 7.018 7.018 0 0 1-3.705.932 7 7 0 0 1-3.728-1.02 3.813 3.813 0 0 1-1.9-2.893H53.1A7.733 7.733 0 0 1 50-.12a8.562 8.562 0 0 1-3.919.945A6.994 6.994 0 0 1 41.2-1a6.2 6.2 0 0 1-2.006-4.813 6.58 6.58 0 0 1 1-3.744 7.829 7.829 0 0 1 2.554-2.4A15.879 15.879 0 0 1 46-13.425q1.7-.542 3.07-.97a9.059 9.059 0 0 0 2.857-1.43 2.6 2.6 0 0 0 1.144-2.1Zm9.959-6.786a11.447 11.447 0 0 0 6.582-1.694 9.517 9.517 0 0 0 3.576-5.281l.495-.165v7.141h5.764v.8H63.027ZM80.36-4.827a7.216 7.216 0 0 1-1.621 3.163A7.321 7.321 0 0 1 76.114.209a7.954 7.954 0 0 1-3.082.616 6.726 6.726 0 0 1-4.653-1.772Q66.41-2.718 66.41-6.43V-25.9h7.27v19.95a4.331 4.331 0 0 0 .772 2.75 2.469 2.469 0 0 0 2.029.969 3.174 3.174 0 0 0 1.919-.642 6.441 6.441 0 0 0 1.681-2.09Z" transform="translate(90 170)"/><path id="Path_7" data-name="Path 7" d="M.968-2.772C.968-1.012 2.244.242 4.6.242a8.222 8.222 0 0 0 3.41-.77 5.221 5.221 0 0 0 2.816.814 4.664 4.664 0 0 0 1.628-.33c.154-.044.2-.11.2-.2q0-.1-.2-.2a8.919 8.919 0 0 1-2.53-1.43 5.422 5.422 0 0 0 2.2-3.85c0-1.474-1.232-2-2.508-2a5.135 5.135 0 0 0-1.782.33c-.176.066-.286.132-.286.242s.066.176.264.2A2.577 2.577 0 0 1 10.054-4.6a3.247 3.247 0 0 1-.836 2.156C7.172-4.136 4.224-7.392 4.224-9.328c0-.77.528-1.254 1.452-1.254 1.342 0 3.212 1.056 3.542 1.056.242 0 .264-.308.264-.682v-.836c0-.9-.924-1.144-2.354-1.144-2.178 0-4.136 1.166-4.136 3.432a6.181 6.181 0 0 0 .33 1.848A5.346 5.346 0 0 0 .968-2.772ZM2.926-3.96a4.074 4.074 0 0 1 .682-2.156 13.659 13.659 0 0 0 3.608 4.928 4.179 4.179 0 0 1-1.276.2A2.927 2.927 0 0 1 2.926-3.96Z" transform="translate(172 161)"/><path id="Path_8" data-name="Path 8" d="m15.733-.22-.165.22H.985L.82-.22a4.348 4.348 0 0 0 2.2-1.522 7.241 7.241 0 0 0 1.162-3.15 34.207 34.207 0 0 0 .351-5.479v-15.558a34.207 34.207 0 0 0-.351-5.479A7.342 7.342 0 0 0 3.02-34.57a4.184 4.184 0 0 0-2.2-1.51l.165-.22h14.88l.165.22A3.89 3.89 0 0 0 14-34.571a7.667 7.667 0 0 0-1.073 3.162 37.312 37.312 0 0 0-.321 5.479v15.558q0 3.373.2 5.45a7.615 7.615 0 0 0 .865 3.165A3.58 3.58 0 0 0 15.733-.22Zm-3.068-17.294 11.871-14q1.324-1.561.675-2.87a3.425 3.425 0 0 0-2.629-1.695l.165-.22h10.41l.22.22a12.468 12.468 0 0 0-4.743 1.959 19.752 19.752 0 0 0-3.569 3.355l-6.3 7.7L30.522-5.336q1.341 1.968 2.416 3.322A5.1 5.1 0 0 0 35.463-.22L35.3 0H20.573l-.165-.22q1.76-.55 1.783-1.84a6.046 6.046 0 0 0-1.238-3.2ZM44.536.825a10.348 10.348 0 0 1-6.042-1.832A12.5 12.5 0 0 1 34.336-6a16.294 16.294 0 0 1-1.515-7.132 15.373 15.373 0 0 1 1.613-7.2 12.567 12.567 0 0 1 4.328-4.857A10.866 10.866 0 0 1 44.8-26.95a10 10 0 0 1 5.39 1.458 10.1 10.1 0 0 1 3.674 4.013 12.633 12.633 0 0 1 1.327 5.906q0 .529-.027.984a6.174 6.174 0 0 1-.138.954H38.439v-.8h9.848q.059-.9.074-1.781t.015-1.638a15.293 15.293 0 0 0-.972-6.112q-.972-2.154-2.706-2.154-1.966 0-3.033 2.648a19.545 19.545 0 0 0-1.065 7.138 21.47 21.47 0 0 0 1.194 7.727 10.533 10.533 0 0 0 3.055 4.543 6.094 6.094 0 0 0 3.824 1.48 5.276 5.276 0 0 0 2.912-.877 7.073 7.073 0 0 0 2.326-2.679l.3.11a9 9 0 0 1-2.1 3.677 10.023 10.023 0 0 1-3.4 2.359 10.613 10.613 0 0 1-4.175.819Zm33.4-26.95H58.605l-1.265 7.148.3.139a11.9 11.9 0 0 1 3.263-4.6 8.669 8.669 0 0 1 4.117-1.788 18.829 18.829 0 0 1 4.92-.04L55.866-.33l.11.33h19.743l1.553-8.3-.305-.139a13.679 13.679 0 0 1-2.93 4.9 8.7 8.7 0 0 1-4.164 2.369 16.31 16.31 0 0 1-5.6.26l13.77-24.775Z" transform="translate(170 202)"/></g></svg>