<svg xmlns="http://www.w3.org/2000/svg" width="100.282" height="44.625"><g id="Group_27" data-name="Group 27" transform="translate(1072.618 760.1)"><path id="Path_9" data-name="Path 9" d="M.382-.14a2.3 2.3 0 0 0 1.326-.789 4.154 4.154 0 0 0 .777-1.74 12.61 12.61 0 0 0 .261-2.8V-16.5a21.768 21.768 0 0 0-.223-3.487A4.672 4.672 0 0 0 1.784-22a2.663 2.663 0 0 0-1.4-.961l.1-.14H7.61l5.066 15.445 3.761-11.669q.393-1.221.588-1.843a8.237 8.237 0 0 0 .264-1.02 5.419 5.419 0 0 0 .069-.912h7.586l.105.14a2.662 2.662 0 0 0-1.4.961 4.672 4.672 0 0 0-.739 2.012 21.768 21.768 0 0 0-.223 3.487v9.9a21.768 21.768 0 0 0 .223 3.487 4.608 4.608 0 0 0 .739 2 2.767 2.767 0 0 0 1.4.969L24.944 0h-9.658l-.1-.14a2.767 2.767 0 0 0 1.4-.969 4.608 4.608 0 0 0 .739-2 21.768 21.768 0 0 0 .221-3.491v-13.942L10.643.525h-.215L3.414-20.289v14.822a12.6 12.6 0 0 0 .261 2.8 4.083 4.083 0 0 0 .787 1.74 2.339 2.339 0 0 0 1.317.787L5.674 0H.487Zm33.389-9.717q-.49.3-.908.529t-.709.424a4.285 4.285 0 0 0-1.864 1.838 5.907 5.907 0 0 0-.53 2.6 4.441 4.441 0 0 0 .54 2.442 1.661 1.661 0 0 0 1.445.8 2.146 2.146 0 0 0 1.044-.324 2.709 2.709 0 0 0 .984-1.045Zm0-2.449a2.97 2.97 0 0 0-.87-2.236 3.023 3.023 0 0 0-2.192-.842 4.24 4.24 0 0 0-2.057.582 4.329 4.329 0 0 0-1.737 1.99l-.178-.089a5.441 5.441 0 0 1 1.249-2.35 5.622 5.622 0 0 1 2.086-1.419 6.876 6.876 0 0 1 2.545-.478 6.55 6.55 0 0 1 2.83.621 5.136 5.136 0 0 1 2.132 1.861 5.526 5.526 0 0 1 .816 3.1v8.753a1.968 1.968 0 0 0 .363 1.287 1.183 1.183 0 0 0 .956.436 1.681 1.681 0 0 0 .727-.17 2.57 2.57 0 0 0 .724-.547l.143.086A3.939 3.939 0 0 1 39.8-.068a4.466 4.466 0 0 1-2.358.593 4.453 4.453 0 0 1-2.372-.649 2.427 2.427 0 0 1-1.211-1.841h-.07a4.921 4.921 0 0 1-1.971 1.888 5.448 5.448 0 0 1-2.494.6 4.451 4.451 0 0 1-3.107-1.16A3.944 3.944 0 0 1 24.94-3.7a4.187 4.187 0 0 1 .634-2.383 4.982 4.982 0 0 1 1.626-1.53 10.1 10.1 0 0 1 2.071-.93q1.08-.345 1.953-.617a5.765 5.765 0 0 0 1.818-.91 1.656 1.656 0 0 0 .728-1.334Zm6.337-4.318A7.285 7.285 0 0 0 44.3-17.7a6.056 6.056 0 0 0 2.276-3.362l.315-.1v4.545h3.668v.512H40.108Zm11.03 13.552a4.592 4.592 0 0 1-1.032 2.013 4.659 4.659 0 0 1-1.67 1.192 5.061 5.061 0 0 1-1.961.392A4.28 4.28 0 0 1 43.514-.6a4.466 4.466 0 0 1-1.253-3.489v-12.396h4.626v12.7a2.756 2.756 0 0 0 .491 1.755 1.571 1.571 0 0 0 1.291.616 2.02 2.02 0 0 0 1.224-.411 4.1 4.1 0 0 0 1.07-1.33Z" transform="translate(-1073 -737)"/><path id="Path_10" data-name="Path 10" d="M.616-1.764c0 1.12.812 1.918 2.31 1.918A5.232 5.232 0 0 0 5.1-.336a3.322 3.322 0 0 0 1.788.518 2.968 2.968 0 0 0 1.036-.21c.1-.028.126-.07.126-.126s-.042-.084-.126-.126a5.676 5.676 0 0 1-1.61-.91 3.45 3.45 0 0 0 1.4-2.45c0-.938-.784-1.274-1.6-1.274a3.267 3.267 0 0 0-1.134.21c-.112.042-.182.084-.182.154s.042.112.168.126A1.64 1.64 0 0 1 6.4-2.926a2.067 2.067 0 0 1-.532 1.372C4.564-2.632 2.688-4.7 2.688-5.936c0-.49.336-.8.924-.8a9.671 9.671 0 0 1 2.254.672c.154 0 .168-.2.168-.434v-.532c0-.574-.588-.728-1.5-.728C3.15-7.756 1.9-7.014 1.9-5.572A3.934 3.934 0 0 0 2.114-4.4 3.4 3.4 0 0 0 .616-1.764Zm1.246-.756A2.593 2.593 0 0 1 2.3-3.892 8.692 8.692 0 0 0 4.6-.756a2.659 2.659 0 0 1-.82.126 1.863 1.863 0 0 1-1.918-1.89Z" transform="translate(-1020 -742)"/><path id="Path_11" data-name="Path 11" d="M10.012-.14 9.907 0H.627L.522-.14a2.767 2.767 0 0 0 1.4-.969 4.608 4.608 0 0 0 .739-2A21.768 21.768 0 0 0 2.886-6.6v-9.9a21.768 21.768 0 0 0-.223-3.487A4.672 4.672 0 0 0 1.924-22a2.663 2.663 0 0 0-1.4-.961l.105-.14H10.1l.1.14A2.475 2.475 0 0 0 8.912-22a4.879 4.879 0 0 0-.683 2.012 23.744 23.744 0 0 0-.2 3.487v9.9q0 2.146.129 3.468A4.846 4.846 0 0 0 8.7-1.118a2.278 2.278 0 0 0 1.312.978ZM8.06-11.145l7.554-8.91a1.616 1.616 0 0 0 .43-1.827 2.179 2.179 0 0 0-1.674-1.078l.1-.14h6.63l.14.14a7.934 7.934 0 0 0-3.018 1.247 12.569 12.569 0 0 0-2.271 2.135l-4.009 4.9L19.423-3.4q.854 1.252 1.538 2.114A3.244 3.244 0 0 0 22.567-.14l-.1.14h-9.375l-.1-.14q1.12-.35 1.135-1.171a3.847 3.847 0 0 0-.788-2.038ZM28.341.525A6.585 6.585 0 0 1 24.5-.641a7.957 7.957 0 0 1-2.65-3.177 10.369 10.369 0 0 1-.964-4.539 9.783 9.783 0 0 1 1.026-4.582 8 8 0 0 1 2.754-3.091 6.915 6.915 0 0 1 3.842-1.12 6.366 6.366 0 0 1 3.43.927 6.425 6.425 0 0 1 2.338 2.554 8.039 8.039 0 0 1 .845 3.758q0 .336-.018.626a3.929 3.929 0 0 1-.088.607H24.461v-.512h6.267q.038-.571.047-1.133t.01-1.042a9.732 9.732 0 0 0-.619-3.89 1.918 1.918 0 0 0-1.722-1.371q-1.251 0-1.93 1.685a12.438 12.438 0 0 0-.679 4.546 13.663 13.663 0 0 0 .76 4.917 6.7 6.7 0 0 0 1.944 2.891 3.878 3.878 0 0 0 2.434.942 3.357 3.357 0 0 0 1.853-.555 4.5 4.5 0 0 0 1.482-1.7l.191.07a5.727 5.727 0 0 1-1.338 2.33A6.378 6.378 0 0 1 31 0a6.754 6.754 0 0 1-2.659.525Zm21.253-17.15h-12.3l-.805 4.549.194.089a7.575 7.575 0 0 1 2.076-2.93 5.516 5.516 0 0 1 2.62-1.138 11.982 11.982 0 0 1 3.131-.025L35.551-.21l.07.21h12.564l.988-5.284-.194-.089a8.7 8.7 0 0 1-1.865 3.121 5.539 5.539 0 0 1-2.649 1.507 10.379 10.379 0 0 1-3.565.166l8.762-15.766Z" transform="translate(-1022 -716)"/></g></svg>